<svg width="165" height="18" viewBox="0 0 165 18" fill="none" xmlns="http://www.w3.org/2000/svg">
<path d="M3.984 17.14C5.088 17.044 6.048 16.708 6.048 14.98V0.987999H4.56C1.608 0.987999 0.744 2.644 0.432 4.588L0.024 4.564L0.24 0.915999L0.288 0.219999H14.496L14.544 0.915999L14.784 4.564L14.376 4.588C14.04 2.644 13.176 0.987999 10.224 0.987999H8.688V14.98C8.688 16.708 9.648 17.044 10.752 17.14V17.5H3.984V17.14ZM13.0781 17.164C14.0861 17.068 14.9261 16.756 14.9261 15.1V7.948C14.9261 6.292 14.0861 5.98 13.0781 5.884V5.548H17.3741V9.388C17.9261 7.084 19.7741 5.02 22.1501 5.5L21.7901 7.972H21.6221C19.6541 7.156 17.7101 8.596 17.3741 11.38V15.1C17.3741 16.756 18.2141 17.068 19.2221 17.164V17.5H13.0781V17.164ZM25.3734 17.692C23.3094 17.692 21.9174 16.324 21.9174 14.476C21.9174 11.812 24.7974 10.204 28.7574 10.828V9.34C28.7574 7.54 27.5094 6.796 26.1414 6.796C24.9894 6.796 23.5494 7.348 22.5174 8.86L22.1814 8.764C22.8534 6.964 24.6054 5.452 26.9814 5.428C29.3334 5.38 31.2294 6.844 31.2294 9.148V15.364C31.2294 15.916 31.2774 16.42 31.6854 16.42C31.7574 16.42 31.9494 16.396 32.0934 16.324L32.2374 16.468C31.9254 17.044 31.3014 17.692 30.3894 17.692C29.3814 17.692 28.7574 16.924 28.7574 16.012C28.0614 16.9 26.9334 17.692 25.3734 17.692ZM24.3174 14.14C24.3174 15.316 24.9414 16.516 26.4534 16.516C27.4134 16.516 28.2054 15.964 28.7574 15.196V11.476C26.0454 11.092 24.3174 12.172 24.3174 14.14ZM38.0529 17.692C35.1969 17.692 32.6529 15.46 32.6529 11.524C32.6529 7.852 35.0529 5.404 38.3649 5.404C39.9249 5.404 41.3409 6.004 42.4209 6.628L42.4449 9.724H42.0849C41.2689 7.42 40.1169 6.196 38.5329 6.196C36.3249 6.196 35.2449 8.428 35.2689 11.044C35.2929 13.972 36.7089 16.228 39.0849 16.228C40.5249 16.228 41.7009 15.388 42.5169 14.236L42.8049 14.308C42.1329 16.084 40.5249 17.692 38.0529 17.692ZM48.885 17.692C46.029 17.692 43.437 15.46 43.437 11.524C43.437 7.78 45.645 5.404 48.741 5.404C51.909 5.404 53.661 7.9 53.637 11.164H45.981C46.053 14.452 47.685 16.18 49.797 16.18C51.117 16.18 52.389 15.556 53.373 14.284L53.661 14.356C53.037 16.06 51.333 17.692 48.885 17.692ZM46.005 10.468H51.141C51.069 8.236 50.229 6.124 48.669 6.124C46.989 6.124 46.125 8.404 46.005 10.468ZM59.2487 17.716C58.0487 17.716 56.4887 17.332 54.8087 16.588L54.8807 13.324H55.2407C56.1767 16.156 57.8327 16.972 59.2727 16.972C60.5927 16.972 61.4807 16.276 61.4807 15.052C61.4807 13.588 60.0407 13.156 58.1927 12.412C56.0327 11.524 54.7367 10.684 54.7367 8.932C54.7367 6.796 56.4407 5.404 59.0807 5.404C60.2327 5.404 61.6487 5.716 62.9927 6.34L62.9207 9.412H62.5367C61.7927 6.796 60.3527 6.148 59.0567 6.148C57.6407 6.148 56.7287 6.892 56.7287 7.948C56.7287 9.268 58.2407 9.604 60.3767 10.492C62.0327 11.14 63.4727 11.932 63.4727 14.02C63.4727 16.372 61.6727 17.716 59.2487 17.716ZM81.8496 17.5L71.8896 4.084V14.788C71.8896 16.588 73.0656 16.924 73.9536 17.092V17.5H68.7456V17.092C69.6096 16.924 70.7856 16.588 70.7856 14.788V2.932C70.7856 1.132 69.6096 0.795999 68.7456 0.628V0.219999H74.3376L82.2576 10.828V2.932C82.2576 1.132 81.0816 0.795999 80.1936 0.628V0.219999H85.2576V0.628C84.4416 0.795999 83.3616 1.132 83.3616 2.932V17.5H81.8496ZM91.0569 17.764C88.2249 17.764 85.0809 15.796 85.0809 11.452C85.0809 7.492 87.4089 5.188 90.9369 5.188C94.9689 5.188 96.5289 8.308 96.4809 11.212H89.2089C89.4009 14.404 90.9849 15.676 92.6889 15.676C93.8409 15.676 94.9929 15.172 96.0969 13.948L96.4089 14.02C95.8809 15.604 94.0569 17.764 91.0569 17.764ZM89.1849 10.42H92.5929C92.5929 8.74 92.3049 6.004 90.9369 6.004C89.5209 6.004 89.2089 8.932 89.1849 10.42ZM100.253 17.716C98.3569 17.716 96.7969 16.3 96.7969 14.356C96.7969 11.836 99.2689 10.132 103.253 10.828V9.412C103.253 7.852 102.125 7.132 100.781 7.132C99.7489 7.132 98.5249 7.588 97.5889 9.004L97.1809 8.932C97.6849 7.108 99.4369 5.26 102.341 5.188C105.341 5.14 107.213 7.084 107.213 9.34V14.5C107.213 15.148 107.309 15.724 107.741 15.724C107.837 15.724 107.981 15.7 108.077 15.628L108.245 15.772C107.909 16.732 106.949 17.716 105.605 17.716C104.429 17.716 103.565 17.02 103.325 16.06C102.677 16.948 101.669 17.716 100.253 17.716ZM100.397 13.9C100.397 15.028 100.925 16.012 101.885 16.012C102.461 16.012 102.941 15.676 103.253 15.34V11.5C101.477 11.38 100.397 12.316 100.397 13.9ZM107.903 17.116C108.599 16.972 109.535 16.66 109.535 15.028V7.804C109.535 6.172 108.599 5.86 107.903 5.716V5.332H113.543V9.124C114.167 6.628 116.063 4.804 118.463 5.26L117.863 8.908H117.599C115.583 7.948 113.735 9.124 113.543 11.668V15.028C113.543 16.66 114.455 16.972 115.175 17.116V17.5H107.903V17.116ZM125.258 2.692C124.394 1.084 123.194 0.844 122.306 0.628V0.219999H130.73V0.628C129.962 0.795999 128.834 1.132 129.674 2.764L132.962 9.076L136.274 2.692C137.09 1.108 136.082 0.795999 135.242 0.628V0.219999H140.402V0.628C139.538 0.795999 138.314 1.108 137.474 2.692L133.514 10.06V14.788C133.514 16.588 134.666 16.924 135.506 17.092V17.5H127.25V17.092C128.09 16.924 129.218 16.588 129.218 14.788V10.084L125.258 2.692ZM143.141 17.764C139.997 17.764 136.829 15.484 136.829 11.38C136.829 7.3 139.997 5.188 143.141 5.188C146.261 5.188 149.501 7.324 149.501 11.38C149.501 15.484 146.261 17.764 143.141 17.764ZM141.149 11.38C141.149 13.66 141.389 16.972 143.141 16.972C144.845 16.972 145.181 13.684 145.181 11.38C145.181 9.1 144.845 5.98 143.141 5.98C141.413 5.98 141.149 9.124 141.149 11.38ZM154.675 17.644C152.635 17.644 150.859 16.252 150.859 13.708V7.804C150.859 6.172 149.923 5.86 149.251 5.716V5.332H154.867V13.156C154.867 14.644 155.635 15.172 156.547 15.196C157.219 15.196 157.915 14.932 158.467 14.548V7.804C158.467 6.172 157.747 5.86 157.171 5.716V5.332H162.451V15.028C162.451 16.66 163.387 16.972 164.083 17.116V17.5H159.595C159.043 16.9 158.683 16.18 158.491 15.484C157.699 16.636 156.403 17.644 154.675 17.644Z" fill="#042049"/>
</svg>
